<svg xmlns="http://www.w3.org/2000/svg" width="322.484" height="161.377" viewBox="0 0 322.484 161.377"><defs><style>.a{fill:#9e9e9e;font-size:13.545px;font-family:RalewayRoman-Regular, Raleway;letter-spacing:0.285em;}.b{fill:#fff;}.c{fill:#ffa300;}</style></defs><g transform="translate(-141.295 -129.305)"><text class="a" transform="translate(294.86 279.627)"><tspan x="0" y="0">AEM ON A PLATE</tspan></text><g transform="translate(1.133 0.683)"><path class="b" d="M276.963,163.014c.08-.492.153-.984.241-1.474a2.638,2.638,0,0,1,2.933-2.284c1.641.027,2.449,1.1,3.109,2.325,1.513,2.814,2.962,5.661,4.442,8.493a1.468,1.468,0,0,0,.544.588v-11.2h3.21c.009.18.026.372.026.564,0,3.635.011,7.271,0,10.906a3.333,3.333,0,0,1-1.076,2.578,2.7,2.7,0,0,1-2.011.587,3.54,3.54,0,0,1-3.064-2.3c-1.514-2.9-3.053-5.788-4.586-8.679-.078-.147-.187-.278-.382-.564v11.366h-3.381Z"/><path class="b" d="M349.147,164.879c-.118-.808.091-1.733-.813-2.183a3.381,3.381,0,0,0-1.425-.27c-2.336-.026-4.673-.011-7.009-.011h-.682v-3h.547c2.895,0,5.791-.02,8.686.012a4.145,4.145,0,0,1,2.529.8,3.066,3.066,0,0,1,1.248,2.408c.1,2.844.105,5.692.14,8.538.011.894,0,1.788,0,2.746h-.69c-3.175,0-6.35.01-9.525,0a3.351,3.351,0,0,1-3.677-3.705,13.681,13.681,0,0,1,.275-3.048,2.668,2.668,0,0,1,2.479-2.095,32.325,32.325,0,0,1,3.267-.133c1.477-.022,2.955-.008,4.432-.011A1.648,1.648,0,0,0,349.147,164.879Zm-.037,2.929c-1.977,0-3.889,0-5.8,0-1.054,0-1.33.166-1.518,1.192a2.647,2.647,0,0,0,.219,1.4.985.985,0,0,0,.768.39c1.973.033,3.947.018,5.921.016.133,0,.265-.024.411-.038Z"/><path class="b" d="M380.063,173.92c-3.6,0-7.114.005-10.628-.008a3.779,3.779,0,0,1-.911-.2,2.988,2.988,0,0,1-2.234-2.591,9.328,9.328,0,0,1,.108-3.815,2.966,2.966,0,0,1,2.627-2.247c2.348-.081,4.7-.092,7.046-.131.235,0,.469,0,.734,0,.027-.905.184-1.811-.781-2.269a3.176,3.176,0,0,0-1.308-.238c-2.337-.022-4.674-.01-7.011-.01h-.677v-3h.62c2.836,0,5.673-.018,8.509.011a4.4,4.4,0,0,1,2.442.7,2.859,2.859,0,0,1,1.32,2.251c.115,2.084.117,4.175.14,6.264C380.078,170.381,380.063,172.115,380.063,173.92Zm-3.287-3.115v-3c-2.03,0-4.04-.015-6.049.011-.494.007-1.06.171-1.142.73a4.592,4.592,0,0,0,.119,1.733.957.957,0,0,0,.743.5C372.539,170.822,374.632,170.8,376.776,170.8Z"/><path class="b" d="M323.368,173.846V159.418h.576c3.015,0,6.03-.037,9.043.017a3.607,3.607,0,0,1,3.4,1.711,4.718,4.718,0,0,1,.61,1.923c.113,2.084.188,4.177.117,6.26a4.734,4.734,0,0,1-1.176,3.472,3.907,3.907,0,0,1-2.715,1.1c-3.233.058-6.467.017-9.7.012C323.487,173.91,323.452,173.882,323.368,173.846Zm3.388-11.311V170.8c1.953,0,3.866.01,5.779-.006a1.335,1.335,0,0,0,1.126-1.245q.025-2.872,0-5.745a1.336,1.336,0,0,0-1.242-1.266C330.547,162.522,328.673,162.535,326.756,162.535Z"/><path class="b" d="M311.143,173.888V162.439h-4.65V159.45h12.76v2.943H314.5v11.495Z"/><path class="b" d="M305.35,159.461v2.931h-4.616v11.485h-3.377V162.439h-4.64v-2.978Z"/><path class="b" d="M361.14,173.893h-3.355V162.446h-4.654v-2.993h12.633v2.933H361.14Z"/></g><path class="c" d="M278.029,218.6a.925.925,0,0,1,.117,1.4q-.7.817-1.989,2.223-.939.936-2.107,2.107-1.992,1.989-4.213,4.1-2.459,2.106-4.448,3.862-1.289,1.053-2.34,1.873-1.641,1.053-2.692,1.638a6.477,6.477,0,0,1-.819.351,6.823,6.823,0,0,1-1.171.352h-.7a.476.476,0,0,0-.351-.118l-.117-.117h-.234a1.913,1.913,0,0,0-.293-.234c-.117-.078-.333-.234-.644-.468a2.735,2.735,0,0,1-.351-.585,4.967,4.967,0,0,1-.7-2.224A14.179,14.179,0,0,1,255.09,231a32.636,32.636,0,0,1,1.639-6.086q.817-2.343,2.223-5.5.467-1.169,1.171-2.691l.351-.82a4.628,4.628,0,0,0-.936.468l-3.746,1.4-7.49,2.809q-4.214,1.636-9.246,3.628a19.152,19.152,0,0,1,.586,8.192q-.237,1.757-.82,4.213-.7,2.459-1.287,4.1a42.026,42.026,0,0,1-3.745,7.49,54.246,54.246,0,0,1-4.916,6.671A81.081,81.081,0,0,1,216.7,265.994,130.846,130.846,0,0,1,188.38,281.56q-7.724,3.159-15.214,5.384-4.332,1.285-7.842,1.989-2.342.466-4.1.7-2.225.234-4.213.351a31.584,31.584,0,0,1-8.427-.819,16.7,16.7,0,0,1-4.33-1.638,12.193,12.193,0,0,1-1.872-1.522,7.011,7.011,0,0,1-1.639-2.106,6.427,6.427,0,0,1-.585-2.692,9.34,9.34,0,0,1,.351-2.458,14.005,14.005,0,0,1,1.756-4.1,33.918,33.918,0,0,1,5.383-6.437,97.745,97.745,0,0,1,12.874-9.831q6.084-3.862,13.927-7.958,11.469-6.205,28.791-13.811,13.224-5.734,29.493-12.171a2.258,2.258,0,0,0,.7-.176,2,2,0,0,0,.585-.292,14.757,14.757,0,0,0-3.043-5.033,24.117,24.117,0,0,0-5.5-4.8,71.616,71.616,0,0,0-13.81-6.671q-5.5-2.107-14.98-4.8-12.056-3.625-15.332-4.681a70.573,70.573,0,0,1-7.607-3.16,26.515,26.515,0,0,1-3.745-2.107,15.552,15.552,0,0,1-3.511-3.16,11.451,11.451,0,0,1-1.288-2.34,5.147,5.147,0,0,1-.468-1.288,6.567,6.567,0,0,1-.117-1.287,12.5,12.5,0,0,1,.819-4.915,24.984,24.984,0,0,1,4.565-7.374,68.731,68.731,0,0,1,5.852-5.851,66.281,66.281,0,0,1,6.437-5.15,155.426,155.426,0,0,1,13.459-8.9q6.671-3.977,14.044-7.724,7.372-3.626,14.629-6.671,8.076-3.393,15.1-5.618a90.294,90.294,0,0,1,15.916-3.628,34.015,34.015,0,0,1,8.544.117,10.446,10.446,0,0,1,2.341.7,7.539,7.539,0,0,1,2.223,1.521,6,6,0,0,1,1.4,2.575,9.335,9.335,0,0,1,.117,2.574,19.2,19.2,0,0,1-1.171,4.331,30.017,30.017,0,0,1-1.638,3.862q-.118.236-1.4,2.984t-1.872,4.155a37.361,37.361,0,0,0-2.575,7.256,14.627,14.627,0,0,0-.351,7.022,2,2,0,0,1-.293,1.7,2.168,2.168,0,0,1-1.4.937,2.376,2.376,0,0,1-1.7-.293,1.785,1.785,0,0,1-.936-1.4.331.331,0,0,1-.117-.234,23.89,23.89,0,0,1,1.053-8.778,54.63,54.63,0,0,1,3.043-7.607q.583-1.287,1.7-3.687t1.7-3.569q1.053-2.223,1.521-3.512a15.936,15.936,0,0,0,.82-3.393,3.325,3.325,0,0,0-.059-1.4,2.178,2.178,0,0,0-.527-.936,5,5,0,0,0-2.574-1.054,24.183,24.183,0,0,0-7.374.235,67.182,67.182,0,0,0-7.49,1.521q-3.51.938-7.49,2.224A202.8,202.8,0,0,0,211.9,148.842q-7.257,3.63-13.81,7.608-7.257,4.331-13.108,8.66-3.4,2.458-6.086,4.8a56.04,56.04,0,0,0-5.266,5.5,21.8,21.8,0,0,0-3.862,5.969,6.881,6.881,0,0,0-.468,2.926,3.393,3.393,0,0,0,.234,1.287,4.567,4.567,0,0,0,.7,1.171,10.5,10.5,0,0,0,2.341,2.106,23.561,23.561,0,0,0,3.16,1.756,52.488,52.488,0,0,0,7.139,2.809q3.159,1.17,15.214,4.681,9.6,2.81,15.215,4.8a71.406,71.406,0,0,1,14.863,7.257,35.815,35.815,0,0,1,6.437,5.617,22.131,22.131,0,0,1,3.862,6.437q4.916-1.874,9.129-3.511l7.49-2.809,3.628-1.4q2.691-1.053,3.628-1.522h.117a.335.335,0,0,0,.234-.117,2.393,2.393,0,0,1,1.639.117,2.285,2.285,0,0,1,1.17,2.926l-.117.117a10.875,10.875,0,0,1-.7,1.4l-.7,1.287q-.7,1.4-1.288,2.458-1.4,2.924-2.457,5.15a26.614,26.614,0,0,0-1.639,5.149,7.354,7.354,0,0,0-.117,1.17v.469c.156-.079.311-.158.468-.235a15.179,15.179,0,0,0,2.224-1.287,21.634,21.634,0,0,0,2.341-1.638q2.106-1.522,4.564-3.512,2.34-1.872,4.447-3.745,1.168-1.053,2.107-1.989,1.287-1.29,1.99-1.99Q277.327,217.895,278.029,218.6ZM234.96,231.82a16.8,16.8,0,0,0-.351-5.969,1.3,1.3,0,0,1-.468.234,1.812,1.812,0,0,1-.7.235q-16.036,6.435-29.259,12.4-15.8,7.023-28.439,13.927-7.725,4.214-13.577,8.193-3.629,2.34-6.436,4.447a71.347,71.347,0,0,0-5.852,5.15,29.454,29.454,0,0,0-4.682,5.851,13.485,13.485,0,0,0-1.287,3.277,3.515,3.515,0,0,0,.351,2.692,3.744,3.744,0,0,0,1.99,1.756,10.762,10.762,0,0,0,3.277,1.053,34.8,34.8,0,0,0,7.373.468q1.871-.117,3.745-.351,1.638-.235,3.745-.7,3.276-.7,7.49-1.873a134.427,134.427,0,0,0,14.747-5.266,126.1,126.1,0,0,0,27.386-15.1,69.65,69.65,0,0,0,11.235-10.416,47.824,47.824,0,0,0,4.565-6.086,35.2,35.2,0,0,0,3.277-6.671,29.014,29.014,0,0,0,1.17-3.628Q234.725,233.342,234.96,231.82ZM267.5,203.907a2.252,2.252,0,0,1,2.633,1.756,2.391,2.391,0,0,1-.292,1.7,20.34,20.34,0,0,0-1.756,3.043,2.03,2.03,0,0,1-1.989,1.287,3.794,3.794,0,0,1-.937-.117,2.285,2.285,0,0,1-1.17-2.926,22.534,22.534,0,0,1,2.107-3.745A1.955,1.955,0,0,1,267.5,203.907Z" transform="translate(1.133 0.683)"/><path class="c" d="M313.373,219.18a.836.836,0,0,1-.82,1.054h-.234a3.9,3.9,0,0,0-1.053.468,6.385,6.385,0,0,0-1.287.585,19.551,19.551,0,0,0-2.575,1.287q-2.575,1.405-5.033,3.043a109.593,109.593,0,0,0-9.6,6.788q-.468.351-1.521,1.171-.82,2.808-1.521,5.032-2.107,6.786-3.863,11.353-2.341,6.435-4.564,11.118-1.4,2.924-2.926,5.5a18.588,18.588,0,0,1-1.638,2.575c0,.077-.136.273-.41.585s-.486.545-.644.7q-.818,1.053-1.053,1.287a9.7,9.7,0,0,1-3.043,2.107,6.67,6.67,0,0,1-3.979.585,5.136,5.136,0,0,1-3.745-2.107,6.072,6.072,0,0,1-1.288-3.862v-.819a1.058,1.058,0,0,1,.117-.468v-.352l.352-1.638.351-1.521a3.66,3.66,0,0,1,.234-.82l.234-.7a2.607,2.607,0,0,1,.234-.644q.235-.527.351-.877l.585-1.4.351-.7.351-.7.7-1.288a64.384,64.384,0,0,1,7.139-9.831q3.629-3.979,8.543-8.426,1.989-1.755,4.214-3.628,1.636-4.8,2.691-8.544.234-.587.82-2.574t.936-3.16a19.574,19.574,0,0,0,.585-1.873q-.586.588-1.17,1.17-.7.817-2.048,2.283t-1.932,2.048a38.674,38.674,0,0,1-4.564,4.213,11.708,11.708,0,0,1-1.521.936c-.392.156-.7.273-.937.351a3.009,3.009,0,0,1-3.745-1.755,3.936,3.936,0,0,1-.234-2.341,11.921,11.921,0,0,1,.936-3.394,19.474,19.474,0,0,1,1.4-2.926,30.685,30.685,0,0,1,3.628-5.032,29.841,29.841,0,0,1,2.224-2.224,20.777,20.777,0,0,1,2.808-1.989,5.638,5.638,0,0,1,1.873-.7,1.9,1.9,0,0,0,.585-.117h.7a3.124,3.124,0,0,1,1.639.7,3.325,3.325,0,0,1,.819,1.288,6.66,6.66,0,0,1,.117,1.287,4.675,4.675,0,0,1-.585,1.756.924.924,0,0,1-1.4.468,1.011,1.011,0,0,1-.469-.819v-.117a7.649,7.649,0,0,0-.234-1.171c-.078-.155-.157-.234-.234-.234v.117c0,.079.077.158.234.234l-.117.117a6.007,6.007,0,0,0-.819.586q-.7.586-1.872,1.755-1.054,1.053-1.873,1.99-1.053,1.288-1.755,2.223-1.405,1.757-1.756,2.224a13.149,13.149,0,0,0-1.4,2.224,10.6,10.6,0,0,0-1.054,2.223v.585a.346.346,0,0,0,.234-.116,2.8,2.8,0,0,0,1.171-.586,35.7,35.7,0,0,0,4.33-3.511q1.871-1.874,4.1-4.213l2.107-2.224q.935-1.053,1.053-1.17c.311-.234.585-.428.819-.585a5.515,5.515,0,0,1,.586-.351h.351a.475.475,0,0,1,.351-.117,4.752,4.752,0,0,1,.585.234,1.476,1.476,0,0,1,.585.351,1.851,1.851,0,0,1,.351.468.474.474,0,0,0,.117.351v1.17l-.117.82L295,218.478q-.235,1.52-.585,2.926-.351,1.638-1.4,5.735-.469,1.519-.82,3.043,4.564-3.4,9.129-6.2,2.457-1.641,5.033-3.16,1.52-.82,2.691-1.4a10.6,10.6,0,0,0,1.4-.585,4.552,4.552,0,0,1,1.755-.468Q313.138,218.128,313.373,219.18Zm-36.281,40.026q3.625-7.96,7.841-20.364a89.161,89.161,0,0,0-9.363,9.6A56.971,56.971,0,0,0,268.9,257.8l-.585,1.287-.351.7-.234.586-.585,1.4a9.732,9.732,0,0,1-.468,1.287l-.117.7a.476.476,0,0,0-.117.351l-.117.234-.234,1.4-.118,1.4-.117.234v.936a3.276,3.276,0,0,0,.82,1.638,1.732,1.732,0,0,0,1.287.644,2.942,2.942,0,0,0,1.756-.526,6.386,6.386,0,0,0,1.755-1.4l.819-.936a5.467,5.467,0,0,1,.41-.644c.2-.274.333-.41.41-.41q.819-1.4,1.4-2.457A43.443,43.443,0,0,0,277.092,259.206Zm1.4-32.77h0Z" transform="translate(1.133 0.683)"/><path class="c" d="M339.822,218.6a.924.924,0,0,1,.117,1.288q-1.641,2.924-3.043,5.032-2.107,3.161-3.628,5.033c-.392.389-.781.779-1.171,1.17a7.716,7.716,0,0,1-1.521,1.053,4.025,4.025,0,0,1-1.053.468,3.917,3.917,0,0,1-.937.117,1.442,1.442,0,0,1-.819-.234,2.8,2.8,0,0,1-1.4-.936,4.852,4.852,0,0,1-.7-.936q-.351-1.053-.936-3.277-.469-1.874-.7-2.575a2.525,2.525,0,0,0-.468-.819l-.117-.117h-.117a4.371,4.371,0,0,0-.937.351,23.4,23.4,0,0,0-1.989,1.638q-.939.936-1.99,1.99-1.873,2.106-3.745,4.681-.7.936-1.638,2.458-1.405,2.106-1.873,2.692v.117a2.256,2.256,0,0,1-1.638.527,2.077,2.077,0,0,1-1.522-.761,1.868,1.868,0,0,1-.468-1.99l.117-.468v-.351l.234-.7.468-1.4.819-2.809,1.639-5.5,1.4-4.565a1.113,1.113,0,0,1-.936-.468,1.079,1.079,0,0,1-.117-1.4q.351-.7.819-1.522.467-.584.937-1.287l.936-1.4a10.389,10.389,0,0,1,1.053-1.288,2.237,2.237,0,0,1,1.463-.819,1.657,1.657,0,0,1,1.463.468,1.914,1.914,0,0,1,.819,1.99l-.117.7q-.586,1.641-1.755,5.384l-1.639,5.5-.7,2.341q1.169-1.641,1.521-2.107,1.17-1.4,1.873-2.34a16.332,16.332,0,0,1,2.341-2.341,8.633,8.633,0,0,1,1.755-1.053,4.039,4.039,0,0,1,1.288-.234,1.417,1.417,0,0,1,.7-.059,4.4,4.4,0,0,1,.7.176,4.113,4.113,0,0,1,1.287.7,5.331,5.331,0,0,1,.937.936,12.078,12.078,0,0,1,.936,1.756q.232.935.7,3.159a6.4,6.4,0,0,1,.234,1.4l.351,1.053q.351-.235.82-.527a3.914,3.914,0,0,0,.936-.877,39.778,39.778,0,0,0,3.862-4.33q.818-.939,1.756-2.224,1.285-1.522,1.989-2.341Q339,217.895,339.822,218.6Z" transform="translate(1.133 0.683)"/><path class="c" d="M408.638,181.261a1.6,1.6,0,0,1,.995.7,1.694,1.694,0,0,1,.292,1.288,1.4,1.4,0,0,1-1.521,1.287q-1.053,0-2.282.058c-.819.041-1.58.059-2.282.059q-1.29.118-2.224.234a5.37,5.37,0,0,1-1.053.117,1.036,1.036,0,0,1-.469.117h-.117a1.061,1.061,0,0,1-1.755-.234,1.112,1.112,0,0,1-.117-1.287q-3.747-.234-7.724-.117h-1.522q-2.343,6.086-3.043,7.841-4.916,12.876-8.894,23.992-4.916,13.926-8.193,24.109-2.225,7.139-3.511,12.289-.7,2.34-.819,3.043l-.351,1.521L363.7,257.8q-.118.584-.469,3.16l-.117,1.521v1.522a.931.931,0,0,1-1.053,1.053q-.821,0-.936-.936a27.946,27.946,0,0,1,.468-6.671l.351-1.522.234-1.638a31.9,31.9,0,0,0,.7-3.16q1.287-5.267,3.394-12.406,2.925-10.3,7.608-24.46,3.744-11.118,8.309-24.226.351-.936,1-2.751t.878-2.282a9.064,9.064,0,0,1-1.054,1.521l-5.734,9.48q-2.928,4.915-5.735,9.363-3.512,5.5-6.086,9.363-3.4,5.151-6.437,9.129a34.92,34.92,0,0,1-3.745,4.33q-.7.583-1.287,1.053a2.656,2.656,0,0,1-.937.468,1.055,1.055,0,0,1-.468.117h-.117l-.117.118h-.468a6.016,6.016,0,0,1-1.17-.118,4.119,4.119,0,0,1-1.171-.585,3.219,3.219,0,0,1-.819-.936,2.572,2.572,0,0,1-.468-1.053,9.338,9.338,0,0,1-.117-3.394c0-.079.038-.351.117-.82a25.538,25.538,0,0,1-1.639,2.107,43.229,43.229,0,0,1-3.393,3.979,15.874,15.874,0,0,1-2.107,1.99,4.966,4.966,0,0,1-1.288.936,5.6,5.6,0,0,1-2.106.7H337.6l-.7-.117a7.742,7.742,0,0,1-1.171-.936,3.267,3.267,0,0,1-.936-1.287,7.379,7.379,0,0,1-.351-2.341,12.518,12.518,0,0,1,.819-3.394,30.155,30.155,0,0,1,2.809-5.384,44.911,44.911,0,0,1,7.724-9.011,26.3,26.3,0,0,1,4.916-3.628A9.346,9.346,0,0,1,354.1,205.6a4.388,4.388,0,0,1,1.053-.117,3.655,3.655,0,0,1,.585.117h.117a.347.347,0,0,1,.234.117,1.319,1.319,0,0,1,.468.234,2.6,2.6,0,0,1,1.288,1.288,4.133,4.133,0,0,1,.234,1.287,6.637,6.637,0,0,1,0,1.756q-.119.7-.351,1.638a29.559,29.559,0,0,1-.936,2.809q-.469,1.288-1.054,2.692l-.7,1.4a11.991,11.991,0,0,1-.7,1.4,1.351,1.351,0,0,1-2.107.468.341.341,0,0,1-.117-.234,10.4,10.4,0,0,0-.351,1.287,17.991,17.991,0,0,0-.468,2.575,9.131,9.131,0,0,0,0,2.106c.077,0,.117.077.117.234h.585l.234-.117a5.8,5.8,0,0,0,.819-.7,34.3,34.3,0,0,0,3.511-3.979q2.34-2.808,6.554-8.777,3.042-4.447,6.2-9.129,2.925-4.446,5.969-9.246,3.042-4.916,5.735-9.363a14.376,14.376,0,0,1,.936-1.755q-4.683.235-9.246.7-9.129.7-17.672,2.107-9.48,1.64-17.321,3.745a2.194,2.194,0,0,1-1.639-.176,1.957,1.957,0,0,1-1.053-1.346,2.3,2.3,0,0,1,.234-1.755,2.151,2.151,0,0,1,1.287-1.054,169.673,169.673,0,0,1,17.907-3.511q8.66-1.285,17.906-1.872,5.852-.467,11.821-.585a45.743,45.743,0,0,0,2.223-4.1q1.406-2.572,2.575-4.915.585-1.287,1.053-2.575a1.19,1.19,0,0,1,.235-.468c.076-.234.193-.545.351-.936s.272-.7.351-.937v-.117l.117-.117a1.943,1.943,0,0,1,1.229-1.112,2.015,2.015,0,0,1,1.7.176,1.937,1.937,0,0,1,1.053,2.809q-2.343,6.087-4.8,12.289h.234q4.8.117,9.011.351,4.916.351,9.012,1.053Zm-70.572,47.048c-.079.077-.079.135,0,.175a.807.807,0,0,0,.351.059h.351Zm8.075-6.9q.818-1.053,1.4-1.99.584-.816,1.521-2.106l.7-1.053.352-.586a3.706,3.706,0,0,1,.468-.585v-.117a1.362,1.362,0,0,1,2.106-.117,1.475,1.475,0,0,1,.351.585c.234-.623.428-1.209.586-1.755a22.238,22.238,0,0,0,.7-2.575,3.88,3.88,0,0,0,.234-1.17v-.7a5.635,5.635,0,0,0-1.99.82,20.05,20.05,0,0,0-4.1,3.16,48.843,48.843,0,0,0-6.671,8.426,19.559,19.559,0,0,0-2.341,4.564,5.744,5.744,0,0,0-.468,2.107c-.078,0-.078.038,0,.117a.881.881,0,0,1,.351-.117,7.376,7.376,0,0,0,1.873-1.287,30.718,30.718,0,0,0,3.277-3.628Q345.321,222.455,346.141,221.4Z" transform="translate(1.133 0.683)"/><path class="c" d="M419.462,218.946q.409.936-.41,1.288h-.117a12.348,12.348,0,0,0-2.223,1.17q-.939.7-2.107,1.521-.937.817-1.99,1.756-.937.936-1.872,1.755-.47.466-1.229,1.229t-1.4,1.405a15.829,15.829,0,0,1-1.229,1.112,16.421,16.421,0,0,1-2.107,1.872q-.7.585-1.17.936a8.845,8.845,0,0,1-1.522.7l-.234.117h-.936c-.234-.079-.468-.158-.7-.234-.157-.079-.313-.158-.468-.234a3.778,3.778,0,0,0-.586-.469,1.816,1.816,0,0,0-.351-.468,4.455,4.455,0,0,1-.234-.585l-.117-.234-.117-.234a5.594,5.594,0,0,1-.234-1.756,15.829,15.829,0,0,1,.117-1.638,21.148,21.148,0,0,1,1.053-4.1l-1.989,2.223q-3.747,4.329-5.15,5.852-1.523,1.52-2.808,2.692a13.559,13.559,0,0,1-3.394,2.458,6.088,6.088,0,0,1-1.171.468,3.366,3.366,0,0,1-1.755,0,3.57,3.57,0,0,1-1.756-1.288,5.923,5.923,0,0,1-.585-1.4,8.283,8.283,0,0,1-.117-2.458q.119-.937.351-2.106a23.593,23.593,0,0,1,1.17-3.863q.588-1.755,1.4-3.628,1.289-3.277,3.16-7.139,1.053-1.989,1.755-3.394.585-.935,1.054-1.755a7.362,7.362,0,0,1,.468-.82l.351-.468.117-.234.117-.234.234-.117a2.274,2.274,0,0,1,1.521-.819,1.969,1.969,0,0,1,1.639.527,2.272,2.272,0,0,1,.761,1.58,2.053,2.053,0,0,1-.644,1.638l.117-.117-.117.117v.117l-.234.351-.468.819q-.469.7-.937,1.522-1.053,1.873-1.755,3.277-1.873,3.512-3.277,6.788a45.368,45.368,0,0,0-2.692,6.788q-.232.935-.351,1.638a5.272,5.272,0,0,0-.234,1.4l.117.117a1.954,1.954,0,0,0,.468-.117,12.54,12.54,0,0,0,2.926-1.873,23.068,23.068,0,0,0,2.692-2.34q2.808-2.694,5.266-5.5a74.383,74.383,0,0,0,4.8-5.852,27.809,27.809,0,0,0,2.106-3.16q.466-.817.937-1.521a9.778,9.778,0,0,1,.7-1.4q.115-.233.234-.468a2.386,2.386,0,0,1,1.287-1.112,1.9,1.9,0,0,1,1.639.176,1.806,1.806,0,0,1,1.053,2.224l-.234,1.053q-.586,1.523-2.165,4.681T403.6,224.1a32.354,32.354,0,0,0-1.756,4.681c-.078.311-.157.662-.234,1.053a3.438,3.438,0,0,0-.117.82v.468h.117a2.721,2.721,0,0,0,.819-.234,10.36,10.36,0,0,1,1.054-.585,11.985,11.985,0,0,0,2.106-1.522q1.638-1.4,3.98-3.511l1.989-1.872q1.053-.939,1.99-1.756,1.285-1.053,2.223-1.755a11.532,11.532,0,0,1,2.458-1.4Q419.051,218.012,419.462,218.946Zm-35.4,15.449h0Z" transform="translate(1.133 0.683)"/><path class="c" d="M442.224,218.42q.934.411.468,1.228v.117q-1.641,3.276-3.394,6.086-1.873,3.042-3.863,5.735A69.816,69.816,0,0,1,426.19,242a38.448,38.448,0,0,1-5.852,4.213,16.524,16.524,0,0,1-3.511,1.522q-.585.115-1.053.234h-.7a2.237,2.237,0,0,1-.7-.117,2.721,2.721,0,0,1-1.755-1.053,3.24,3.24,0,0,1-.7-1.756,6.605,6.605,0,0,1,.235-2.341,17.326,17.326,0,0,1,.585-1.872,19.363,19.363,0,0,1,1.4-3.394q1.053-1.992,3.394-6.086.467-.7,1.171-1.873t1.287-2.165q.584-1,1.053-1.814,1.053-1.755,1.639-2.926a.331.331,0,0,1,.117-.234v-.117h-.351a20.338,20.338,0,0,1-3.98-1.17,7.338,7.338,0,0,1-2.106-1.288,6.355,6.355,0,0,1-1.639-2.34,5.255,5.255,0,0,1-.234-2.692.935.935,0,0,1,.117-.585v-.468a4.085,4.085,0,0,1,.234-.937,20.2,20.2,0,0,1,3.16-7.022,18.867,18.867,0,0,1,5.15-5.383,6.738,6.738,0,0,1,.7-.586c.39-.234.7-.427.936-.585a15.314,15.314,0,0,1,1.99-.819,13.277,13.277,0,0,1,2.341-.234,5.2,5.2,0,0,1,2.34.7,6.26,6.26,0,0,1,1.171.936,6.385,6.385,0,0,1,.7,1.054,6.583,6.583,0,0,1,.468,2.458,11.258,11.258,0,0,1-1.17,3.979l-.117.117a29.9,29.9,0,0,1-2.926,3.745,29,29,0,0,1-3.511,3.16,33.86,33.86,0,0,1-3.745,2.692l-.234.234a8.365,8.365,0,0,1,.936.234,13.634,13.634,0,0,1,1.638.117l.82.117h.585a2.6,2.6,0,0,1,1.053.468,4.007,4.007,0,0,1,.936,1.053c.077.311.156.624.234.937a2.992,2.992,0,0,1,0,1.17c-.078.234-.157.468-.234.7a8.4,8.4,0,0,1-.351,1.053,7.1,7.1,0,0,1-.819,1.756,28.862,28.862,0,0,1-1.756,3.16q-.468.818-1.111,1.814l-1.4,2.165q-.762,1.169-1.112,1.756-1.99,3.159-3.511,5.851-1.169,2.107-1.521,2.809-.351.817-.585,1.4a2.237,2.237,0,0,0-.117.7h.351a19.16,19.16,0,0,0,2.926-.819,26.8,26.8,0,0,0,5.5-3.511,55.26,55.26,0,0,0,9.246-9.714,67.064,67.064,0,0,0,3.862-5.618,42.926,42.926,0,0,0,3.277-5.969Q441.287,218.011,442.224,218.42ZM415.3,244.46h0Zm3.863-29.61v.468q1.168-.7,1.521-.936a32.386,32.386,0,0,0,3.628-2.458,37.972,37.972,0,0,0,3.16-2.809,25.758,25.758,0,0,0,2.458-3.277,7.37,7.37,0,0,0,.468-1.4,3.126,3.126,0,0,0,.234-1.17,8.335,8.335,0,0,0-.234-.937,4.015,4.015,0,0,0-.585-.468,2.574,2.574,0,0,0-1.99.117c-.313.157-.664.351-1.053.585a1.846,1.846,0,0,0-.468.351,2.486,2.486,0,0,1-.585.469,28.923,28.923,0,0,0-3.98,4.915,16.034,16.034,0,0,0-2.34,5.5,6.289,6.289,0,0,1-.117.7Z" transform="translate(1.133 0.683)"/><path class="c" d="M441.872,219.531a10.777,10.777,0,0,0,3.979-1.638,16.638,16.638,0,0,0,3.394-2.809,24.086,24.086,0,0,0,2.809-3.394q.585-.936,1.171-1.872a8.614,8.614,0,0,1,.468-1.054l.117-.351.117-.468.117-.117a2.422,2.422,0,0,0,0-1.053c-.157-.235-.313-.351-.468-.351a1.054,1.054,0,0,0-.468.116,2.046,2.046,0,0,0-1.054.586c-.078,0-.2.078-.351.234-.079.078-.157.157-.234.234l-.585.585q-.119.118-1.287,1.4-1.171,1.406-2.458,3.043a54.749,54.749,0,0,0-4.331,6.437q-.937,1.87-1.638,3.511a13.844,13.844,0,0,0-1.053,3.394,2.025,2.025,0,0,0-.117.82,4.971,4.971,0,0,1-.117.819l.117.351v.351l.117.351.117.351v.117l.117.234.117.234q.351.351.351.469l.351.234.234.117.117.117a.1.1,0,0,1,.117.117h.234a2.562,2.562,0,0,0,1.4.117,9.087,9.087,0,0,0,1.638-.468,26.729,26.729,0,0,0,3.394-1.639,68.824,68.824,0,0,0,6.554-4.564q2.924-2.343,6.086-5.267.7-.7,1.4.117a.854.854,0,0,1,0,1.288q-3.159,3.275-5.968,5.734a55.178,55.178,0,0,1-6.554,5.15,30.463,30.463,0,0,1-3.746,1.99,8.026,8.026,0,0,1-2.223.7,6.436,6.436,0,0,1-2.692.117,3.736,3.736,0,0,1-.819-.234.881.881,0,0,0-.351-.117l-.234-.234-.586-.234a6.322,6.322,0,0,0-.585-.469q-.115-.117-.936-1.053a2.854,2.854,0,0,1-.351-.585l-.234-.234-.117-.351a2.076,2.076,0,0,1-.234-.586l-.234-.7a1.319,1.319,0,0,1-.117-.585l-.118-.7a21.547,21.547,0,0,1,.118-2.341,26.748,26.748,0,0,1,2.808-8.309,45.422,45.422,0,0,1,4.448-7.256q1.285-1.756,2.574-3.277.818-.936,1.522-1.639a7.737,7.737,0,0,0,.819-.7l1.054-.819a3.724,3.724,0,0,1,1.287-.586,7.415,7.415,0,0,1,1.4-.468,4.332,4.332,0,0,1,3.394.7,4.015,4.015,0,0,1,1.756,2.925A4.781,4.781,0,0,1,456.97,209l.117-.117-.351.7-.234.586-.7,1.17q-.7,1.053-1.4,1.99A48.565,48.565,0,0,1,451,216.84a20.053,20.053,0,0,1-3.979,2.925,13.84,13.84,0,0,1-4.8,1.756,1.01,1.01,0,0,1-.351-1.99Z" transform="translate(1.133 0.683)"/></g></svg>