<svg xmlns="http://www.w3.org/2000/svg" width="436.442" height="360.443" viewBox="0 0 436.442 360.443"><defs><style>.a{opacity:0.8;}</style></defs><path class="a" d="M87.79-.307,86.779,334.58l23.647,23.686a5.086,5.086,0,0,0,7.212-.011l21.322-21.39a3.225,3.225,0,0,1,4.561-.008l21.491,21.409a5.086,5.086,0,0,0,7.212-.011l21.323-21.39a3.226,3.226,0,0,1,4.562-.008L219.6,358.266a5.087,5.087,0,0,0,7.213-.011l21.325-21.39a3.226,3.226,0,0,1,4.562-.008l21.486,21.409a5.086,5.086,0,0,0,7.212-.011l21.319-21.39a3.224,3.224,0,0,1,4.561-.008l21.493,21.409a5.087,5.087,0,0,0,7.213-.011l21.321-21.39a3.226,3.226,0,0,1,4.562-.008l21.49,21.409a5.087,5.087,0,0,0,7.213-.011l21.32-21.39a3.224,3.224,0,0,1,4.561-.008l21.492,21.409a5.086,5.086,0,0,0,7.212-.011l21.324-21.39a3.226,3.226,0,0,1,4.562-.008l21.487,21.409a5.087,5.087,0,0,0,7.213-.011l23.483-23.675L522.4-.683Z" transform="translate(-86.779 0.683)"/></svg>