<svg xmlns="http://www.w3.org/2000/svg" width="39.501" height="39.008" viewBox="0 0 39.501 39.008"><defs><style>.a,.b{fill:none;stroke:#444;stroke-linecap:round;stroke-linejoin:round;}.a{stroke-width:1.5px;}</style></defs><g transform="translate(0.75 0.75)"><g transform="translate(-1821.867 -154.145)"><path class="a" d="M1836.187,182.786h0a14.32,14.32,0,0,1-14.32-14.32h0a14.321,14.321,0,0,1,14.32-14.321h0a14.32,14.32,0,0,1,14.32,14.321h0A14.32,14.32,0,0,1,1836.187,182.786Z"/></g><g transform="translate(-1821.867 -154.145)"><path class="a" d="M1848.3,176.324l11.2,10.059a1.69,1.69,0,0,1-.247,2.351l-2.3,2.3a1.691,1.691,0,0,1-2.351.247l-10.018-11.1"/></g><g transform="translate(-1821.867 -154.145)"><path class="b" d="M1836.187,157.655a10.791,10.791,0,0,1,8.144,3.7m-18.018,11.517a10.774,10.774,0,0,1-.936-4.408h0a10.814,10.814,0,0,1,8.44-10.55"/></g></g></svg>