<svg xmlns="http://www.w3.org/2000/svg" width="99.991" height="63.318" viewBox="0 0 99.991 63.318"><defs><style>.a{fill:none;stroke:#333;stroke-linecap:round;stroke-linejoin:round;stroke-width:1.5px;}</style></defs><g transform="translate(-405.682 -2214.297)"><path class="a" d="M464.214,2250.763c-.482,2.834-.819,5.2-1.313,7.536a1.852,1.852,0,0,0,.631,2c1.65,1.541,3.238,3.148,4.861,4.717.465.45.914.921.665,1.615-.243.675-.848.784-1.511.876-2.32.32-4.624.763-6.948,1.046a1.507,1.507,0,0,0-1.321,1.049c-.967,2.027-1.989,4.028-2.97,6.048-.3.626-.612,1.242-1.417,1.218s-1.09-.653-1.39-1.273c-.971-2.007-1.974-4-2.937-6.009a1.525,1.525,0,0,0-1.344-1.04c-2.325-.276-4.63-.719-6.95-1.04-.668-.093-1.249-.214-1.446-.928a1.6,1.6,0,0,1,.645-1.638c1.672-1.588,3.316-3.2,4.988-4.791a1.369,1.369,0,0,0,.517-1.474c-.475-2.242-.829-4.509-1.189-6.773-.1-.643-.289-1.369.386-1.858.655-.474,1.273-.166,1.879.154,1.982,1.046,3.979,2.063,5.938,3.149a1.661,1.661,0,0,0,1.827,0c2.044-1.126,4.122-2.192,6.209-3.237C463.327,2249.46,464.277,2249.993,464.214,2250.763Z"/><path class="a" d="M487.488,2249.75c-.34,2-.578,3.667-.926,5.313a1.3,1.3,0,0,0,.445,1.407c1.163,1.086,2.282,2.219,3.426,3.325.329.317.645.649.469,1.138s-.6.553-1.065.618c-1.635.225-3.259.538-4.9.737a1.063,1.063,0,0,0-.931.74c-.681,1.429-1.4,2.839-2.093,4.264-.214.441-.432.875-1,.858s-.768-.46-.98-.9c-.684-1.415-1.391-2.819-2.07-4.236a1.074,1.074,0,0,0-.948-.734c-1.639-.2-3.263-.507-4.9-.733-.47-.065-.88-.151-1.019-.654a1.124,1.124,0,0,1,.455-1.155c1.178-1.119,2.337-2.259,3.516-3.378a.965.965,0,0,0,.364-1.039c-.334-1.58-.584-3.178-.838-4.774-.072-.453-.2-.965.272-1.31s.9-.117,1.325.109c1.4.737,2.805,1.454,4.186,2.22a1.17,1.17,0,0,0,1.288,0c1.441-.793,2.9-1.545,4.377-2.281C486.862,2248.831,487.532,2249.207,487.488,2249.75Z"/><path class="a" d="M502.417,2242.862c-.246,1.447-.418,2.655-.671,3.847a.947.947,0,0,0,.322,1.019c.843.786,1.653,1.607,2.482,2.408.237.23.467.47.339.824s-.432.4-.771.447c-1.184.164-2.36.39-3.547.534a.77.77,0,0,0-.674.536c-.494,1.035-1.016,2.056-1.516,3.087-.155.32-.312.634-.724.622s-.556-.333-.709-.65c-.5-1.024-1.008-2.041-1.5-3.067a.777.777,0,0,0-.686-.531c-1.187-.141-2.363-.367-3.548-.531-.34-.048-.637-.109-.737-.474a.813.813,0,0,1,.329-.836c.853-.81,1.693-1.636,2.546-2.446a.7.7,0,0,0,.264-.752c-.242-1.145-.423-2.3-.607-3.458-.052-.328-.148-.7.2-.948s.65-.085.959.078c1.012.534,2.031,1.054,3.032,1.608a.848.848,0,0,0,.932,0c1.044-.575,2.1-1.12,3.17-1.653C501.964,2242.2,502.449,2242.469,502.417,2242.862Z"/><path class="a" d="M425.412,2249.291c1.472.736,2.936,1.488,4.377,2.281a1.17,1.17,0,0,0,1.288,0c1.381-.766,2.789-1.483,4.186-2.22.427-.226.863-.443,1.325-.109s.344.857.272,1.31c-.254,1.6-.5,3.194-.838,4.774a.965.965,0,0,0,.364,1.039c1.179,1.119,2.338,2.259,3.516,3.378a1.124,1.124,0,0,1,.455,1.155c-.139.5-.548.589-1.019.654-1.636.226-3.26.538-4.9.733a1.075,1.075,0,0,0-.948.734c-.679,1.417-1.386,2.821-2.07,4.236-.212.437-.421.88-.98.9s-.785-.417-1-.858c-.692-1.425-1.412-2.835-2.094-4.264a1.061,1.061,0,0,0-.931-.74c-1.638-.2-3.263-.512-4.9-.737-.468-.065-.894-.142-1.065-.618s.141-.821.469-1.138c1.144-1.106,2.263-2.239,3.427-3.325a1.306,1.306,0,0,0,.444-1.407c-.348-1.646-.586-3.315-.926-5.313C423.824,2249.207,424.494,2248.831,425.412,2249.291Z"/><path class="a" d="M410.058,2242.529c1.065.533,2.126,1.078,3.169,1.653a.848.848,0,0,0,.932,0c1-.554,2.02-1.074,3.032-1.608.309-.163.625-.32.959-.078s.249.62.2.948c-.184,1.156-.364,2.313-.607,3.458a.7.7,0,0,0,.264.752c.854.81,1.693,1.636,2.546,2.446a.811.811,0,0,1,.329.836c-.1.365-.4.426-.737.474-1.185.164-2.361.39-3.548.531a.777.777,0,0,0-.686.531c-.492,1.026-1,2.043-1.5,3.067-.153.317-.3.638-.709.65s-.569-.3-.724-.622c-.5-1.031-1.022-2.052-1.516-3.087a.77.77,0,0,0-.674-.536c-1.186-.144-2.363-.37-3.547-.534-.339-.047-.647-.1-.771-.447s.1-.594.339-.824c.829-.8,1.64-1.622,2.482-2.408a.947.947,0,0,0,.322-1.019c-.253-1.192-.425-2.4-.67-3.847C408.907,2242.469,409.392,2242.2,410.058,2242.529Z"/><path class="a" d="M447.309,2234.348a7.824,7.824,0,1,1-3.023-13.377"/><path class="a" d="M468.6,2236.318a7.826,7.826,0,1,0-7.495-10.085"/><path class="a" d="M466.736,2220.582a14.049,14.049,0,0,0-24.936,5.681"/><path class="a" d="M472.443,2246.535a50.621,50.621,0,0,0-17.283-2.7,52.36,52.36,0,0,0-16.311,2.348"/><line class="a" y2="8.596" transform="translate(442.116 2236.318)"/><line class="a" y2="13.412" transform="translate(468.203 2231.502)"/></g></svg>