<svg xmlns="http://www.w3.org/2000/svg" width="69.902" height="65.213" viewBox="0 0 69.902 65.213"><defs><style>.a,.b{fill:none;stroke:#333;stroke-linecap:round;stroke-linejoin:round;}.a{stroke-width:1.5px;}</style></defs><g transform="translate(-1050.972 -2213.365)"><path class="a" d="M1066.874,2246.136q-1.061,2.08-2.132,4.157a.579.579,0,0,1-.356.275c-1.835.3-3.674.591-5.511.883q-3.058.487-6.115.978a1.145,1.145,0,0,0-.957.777,1.3,1.3,0,0,0,.455,1.466c2.647,2.637,5.279,5.288,7.937,7.914a1.009,1.009,0,0,1,.3,1q-.908,5.622-1.786,11.25a1.274,1.274,0,0,0,1.088,1.434,3.181,3.181,0,0,0,1.015-.343l4.737-2.381c1.783-.906,3.563-1.817,5.353-2.71a.66.66,0,0,1,.517-.014c1.79.893,3.571,1.805,5.354,2.713q2.555,1.3,5.111,2.6"/><path class="a" d="M1094.166,2230.245a12.07,12.07,0,0,0-16.76-14.669c-.838.418-1.615.957-2.452,1.46-.005,0-.058-.038-.107-.077a12.083,12.083,0,0,0-16.1,17.96c2.229,2.224,9.948,9.937,9.948,9.937l2.3,2.3a1.2,1.2,0,0,0,1.718-.02"/><path class="a" d="M1083.855,2273.539a22.913,22.913,0,0,0,29.767-34.6,22.344,22.344,0,0,0-14.731-6.876,22.683,22.683,0,0,0-17.2,5.949,21.02,21.02,0,0,0-2.525,2.768,22.847,22.847,0,0,0,.557,28.95A17.317,17.317,0,0,0,1083.855,2273.539Z"/><path class="a" d="M1106.265,2251.752a2.435,2.435,0,1,0-2.4-2.422A2.451,2.451,0,0,0,1106.265,2251.752Z"/><path class="a" d="M1088.447,2251.752a2.435,2.435,0,1,0-2.4-2.422A2.451,2.451,0,0,0,1088.447,2251.752Z"/><path class="a" d="M1107.776,2257.842q-.045.4-.131.806a10.176,10.176,0,0,1-2.211,4.382,11.448,11.448,0,0,1-1.7,1.635,10.4,10.4,0,0,1-4.081,1.9,11.1,11.1,0,0,1-1.424.21c-.289.024-.573.036-.854.039h-.122c-.28,0-.565-.015-.853-.039a11.069,11.069,0,0,1-1.424-.21,10.413,10.413,0,0,1-4.082-1.9,11.49,11.49,0,0,1-1.7-1.635,10.176,10.176,0,0,1-2.211-4.382q-.086-.405-.131-.806"/><path class="b" d="M1071.825,2221.49s-.033-.021-.061-.043a6.869,6.869,0,0,0-9.155,10.21l5.655,5.65"/></g></svg>