<svg xmlns="http://www.w3.org/2000/svg" width="63.399" height="64.919" viewBox="0 0 63.399 64.919"><defs><style>.a,.b,.c,.d{fill:none;stroke:#333;stroke-linecap:round;stroke-linejoin:round;}.b{stroke-width:1.5px;}.c{stroke-width:0.75px;}.d{stroke-width:0.5px;}</style></defs><g transform="translate(-136.626 -2213.498)"><path class="a" d="M191.677,2227.581a6.245,6.245,0,1,1-6.245-6.245A6.245,6.245,0,0,1,191.677,2227.581Z"/><path class="b" d="M195,2218.2a13.534,13.534,0,0,0-19.14,19.14l9.57,9.57,9.57-9.57A13.575,13.575,0,0,0,195,2218.2Z"/><path class="b" d="M196.96,2235.033a30.885,30.885,0,1,1-19.905-17.979"/><path class="c" d="M191.8,2265.931l-.872-.058c0-.525.029-1.029-.012-1.528a1.354,1.354,0,0,0-.261-.784,3.217,3.217,0,0,1-.892-2.827c.01-.071-.008-.146,0-.217a1.118,1.118,0,0,0-.417-1.047,1.405,1.405,0,0,1-.295-1.933,12.817,12.817,0,0,0,.662-1.307.981.981,0,0,0-.008-.729c-.533-1.008-1.131-1.982-1.664-2.99a1.9,1.9,0,0,1-.181-.916c.022-.678.107-1.354.168-2.052-.237-.032-.4-.062-.557-.074a2.334,2.334,0,0,1-1.951-.71c-.224-.291-1.353-.206-1.621.084a1.261,1.261,0,0,1-1.067.392,5.047,5.047,0,0,0-1.615.068,1.48,1.48,0,0,1-1.847-.411c-.373-.421-.742-.844-1.111-1.268-1.392-1.595-1.392-1.6-1.287-3.705a.723.723,0,0,1,.013-.215c.029-.078.075-.183.139-.208.533-.2.372-.664.447-1.051-.08-.029-.134-.069-.178-.061-.466.082-.5-.261-.617-.572a.566.566,0,0,1,.277-.763c.409-.279.8-.582,1.2-.875"/><path class="c" d="M150.739,2221.993c.782.2,1.634.418,2.488.633.337.085.749.043.823.54.007.049.141.112.218.113.573.01,1.146.006,1.744.006-.042-.4-.213-.623-.653-.6-.4.021-.809,0-1.141,0,.044-.323.152-.57.074-.722-.064-.126-.345-.176-.536-.2a9.3,9.3,0,0,0-.93-.008c.8-.679,1.448-1.513,2.639-1.355a1.334,1.334,0,0,1,1.1.589,1.327,1.327,0,0,0,2.174.175c.332-.344.581-.328.865-.029a2.092,2.092,0,0,1-2.412,1.1c.018,1.056.018,1.056.963,1.043.218,0,.436.007.652-.013.117-.011.308-.047.33-.115.163-.5.577-.409.941-.439.623-.052.665-.1.584-.788l-.586-.16c.036-.474.234-.777.69-.793.645-.023,1.291-.006,1.937-.006l.046.179a5.179,5.179,0,0,0-.771.721.932.932,0,0,0-.093.675c.03.14.24.29.4.342a4.249,4.249,0,0,0,.8.1,7.823,7.823,0,0,0-.055-.892.584.584,0,0,1,.4-.714,3.935,3.935,0,0,1,3.681-.152,5.574,5.574,0,0,0,.743.335c.736.254,1.432.526,1.071,1.537l.919.292c-.234.329-.178.893-.739.823-.72-.09-1.181.12-1.324.867,0,.029-.045.052-.1.116l-2.842-.674,2.216-1.222a1.4,1.4,0,0,0-1.623-.671c-.428.122-.98.058-1.284.31a2.09,2.09,0,0,1-1.776.724l.475.729c-.236.089-.647.133-.686.278-.137.508-.484.308-.786.371l-.23-.83c-1.487.237-2.569,1.178-3.792,1.826a.362.362,0,0,0-.153.257,1.564,1.564,0,0,0,1.288,1.512,8.36,8.36,0,0,0,.862.112c.3.016.4.149.389.445-.021.423-.006.848-.006,1.248.534.124.805-.086.914-.482a1.576,1.576,0,0,1,1.422-1.207.447.447,0,0,0,.252-.091c.138-.15.337-.314.357-.49.051-.448.01-.905.02-1.357a1.222,1.222,0,0,1,1.114-.95,14.734,14.734,0,0,1,1.582.384.6.6,0,0,1,.31.438,5.525,5.525,0,0,1-.078.961c.865.16,1.4-.551,2.114-.653a.353.353,0,0,1,.034.073,1.117,1.117,0,0,1,.02.215c-.07.873.021,1.635,1.007,2.014.37.142.256,1.1-.1,1.274-.274.131-.532.292-.8.44a4.771,4.771,0,0,0,.826.531.663.663,0,0,1,.439,1.015,1.034,1.034,0,0,1-.275,0c-.418-.121-.832-.251-1.247-.381-.637-.2-.678-.423-.244-.917a.615.615,0,0,0,.057-.589c-.112-.146-.338-.148-.5.133a1.148,1.148,0,0,1-1.566.025.9.9,0,0,0-1.113-.22.6.6,0,0,0-.208.446.565.565,0,0,0,.3.353,3.759,3.759,0,0,0,.687.2l-.476.542c-.647-.444-.634-.4-1.223.056s-.854,1.22-1.611,1.507a8.646,8.646,0,0,0-2.829,2.4.443.443,0,0,0-.152.277c.057.668-.4.95-.88,1.232a10.886,10.886,0,0,0-.952.629c-.687.507-1.286,1.06-1.043,2.054a3.813,3.813,0,0,1,.008.816c-.388-.173-.722-.3-1.033-.472a.5.5,0,0,1-.2-.339c-.109-.853-.1-.854-.995-.853a7.592,7.592,0,0,1-1.033,0,4.659,4.659,0,0,0-3.133.808.918.918,0,0,0-.361.306c-.325.663-.644,1.33-.918,2.015a2,2,0,0,0,.4,1.592,2.639,2.639,0,0,0,1.823-.031c.628-.415,1.255-.835,1.884-1.254.6.847-.256,1.366-.37,2.062l.8.149.825.156a.554.554,0,0,1,.061.137c.043.523.085,1.047.123,1.571.072,1.017.086.959,1.088,1.225a1.739,1.739,0,0,0,2.283-.795,1.228,1.228,0,0,1,1.682-.577c.435.147.952.1,1.182.633a.736.736,0,0,0,.929.435c.194-.039.406,0,.593-.056a7.679,7.679,0,0,0,.8-.323c.8-.007,1.166.658,1.507,1.317a1.078,1.078,0,0,0,1.288.692c.974-.218,1.423.368,1.709,1.133a3.385,3.385,0,0,1,.15,1.121.7.7,0,0,0,.495.711,7.481,7.481,0,0,0,3.808.635.728.728,0,0,1,.817.457,1.673,1.673,0,0,0,1.347,1.111c.329.043.3.251.275.518-.084.809-.719,1.272-1.117,1.884a2.148,2.148,0,0,0-.369.813c-.135.968-.2,1.945-.324,2.916a1.112,1.112,0,0,1-.279.547,2.175,2.175,0,0,1-2.1.714.8.8,0,0,0-.637.136c-.321.425-.653.879-.382,1.486a6.967,6.967,0,0,1,.2.79.842.842,0,0,1-.178.84c-.728.966-1.409,1.969-2.119,2.95a.975.975,0,0,1-.392.345c-.787.3-1.588.572-2.375.873-.142.054-.245.206-.366.313a2.108,2.108,0,0,0,.33.331,2.036,2.036,0,0,0,.417.167c.141.675-.542.83-.716,1.239.182.695.779.561,1.329.651-.107.443-.185.828-.3,1.2a.793.793,0,0,0,.293,1.036,5.272,5.272,0,0,1,.75.627c.208.2.125.7-.125.7-.591.012-1.324.152-1.745-.135a7.238,7.238,0,0,1-2.151-2.106,4.717,4.717,0,0,1-.85-3.77.772.772,0,0,0-.146-.642,2.494,2.494,0,0,1-.581-2.86c.026-.086.033-.178.056-.265.079-.294.083-.512-.306-.608-.117-.029-.234-.332-.236-.511-.019-1.431-.007-2.862-.015-4.294,0-.172,0-.425-.108-.5a8.863,8.863,0,0,0-1.931-1.286c-.564-.22-.9-.413-.921-1.038a1.073,1.073,0,0,0-.289-.507c-.594-.755-1.209-1.493-1.786-2.26a1.026,1.026,0,0,1-.165-.634c.041-.63.163-1.256.19-1.886a.772.772,0,0,1,.443-.786,1.655,1.655,0,0,0,1.03-2.241c-.106-.366-.205-.542-.579-.532-.163,0-.328-.037-.489-.024a2.149,2.149,0,0,1-2.156-1.028,3.047,3.047,0,0,0-2.374-1.513c-.538-.04-.973-.148-.647-.828-.652-.209-.673-.2-1.113.1a.461.461,0,0,1-.307.016,6.443,6.443,0,0,0-.845-.2,2.652,2.652,0,0,1-2.325-1.663c-.124-.254-.22-.445-.02-.677.276-.32.179-.584-.048-.907-.742-1.056-1.632-2.043-1.632-3.462,0-.508-.382-.331-.65-.293a4.127,4.127,0,0,0,1.044,3.07.911.911,0,0,1,.111,1.077,1.292,1.292,0,0,1-1.341-.7,4.527,4.527,0,0,1-.822-3.165,1.119,1.119,0,0,0-.008-.432c-.042-.138-.131-.345-.235-.369-1.021-.231-1.132-.947-1.011-1.8.006-.043-.026-.091-.045-.156"/><path class="d" d="M154.949,2231.465l2.44.112a.746.746,0,0,0-.366-.995A1.753,1.753,0,0,0,154.949,2231.465Z"/><path class="d" d="M155.424,2233.542l1.186-1.659c-.842-.159-1.476.159-1.651.8C154.858,2233.048,154.755,2233.449,155.424,2233.542Z"/><path class="d" d="M150.467,2224.255c1.33.109,1.871.143,1.685-.922l-1.685.33Z"/><path class="d" d="M153.728,2229.624c.88-.213.9-.232.963-1.154a1.147,1.147,0,0,0-1.415.228c.1.208.178.388.264.565C153.6,2229.376,153.656,2229.486,153.728,2229.624Z"/><path class="d" d="M158.044,2233.05c-.882.025-1.269.319-1.278.945C157.837,2234.114,158.126,2233.911,158.044,2233.05Z"/><path class="d" d="M150.523,2225.423l-.015.182a2.083,2.083,0,0,0,.483.162c.25.022.506-.025.758-.018.519.015.563-.241.381-.716Z"/><path class="d" d="M158.632,2232.525c-.234.64.145,1.054,1.1.8C159.8,2232.734,159.644,2232.619,158.632,2232.525Z"/><path class="d" d="M157.322,2232.724c.824-.006,1.054-.234.909-.879h-.909Z"/><path class="d" d="M141.859,2231.758l.113.094c.222-.386.76-.591.624-1.325Z"/><path class="d" d="M166.466,2231.69a11.078,11.078,0,0,1-.841.837.575.575,0,0,1-.5.081c-.159-.078-.252-.293-.374-.448.129-.061.259-.119.388-.182a6.276,6.276,0,0,1,.6-.289,6.854,6.854,0,0,1,.688-.17Z"/><path class="d" d="M163.979,2232.032c.063.178.223.4.165.521-.066.134-.326.174-.5.256l-.137-.113.236-.659Z"/></g></svg>