<svg xmlns="http://www.w3.org/2000/svg" width="38.768" height="38.768" viewBox="0 0 38.768 38.768"><defs><style>.a{fill:#ffa300;fill-rule:evenodd;}</style></defs><g transform="translate(-1647.565 -7110.406)"><path class="a" d="M1679.319,7110.406h-24.741a7.014,7.014,0,0,0-7.013,7.014v24.741a7.013,7.013,0,0,0,7.013,7.013h24.741a7.013,7.013,0,0,0,7.014-7.013V7117.42A7.014,7.014,0,0,0,1679.319,7110.406Zm-5.686,10.9h-.327c-.8,0-1.588-.019-2.381.007-1.088.04-1.893.454-1.932,1.812-.027.991-.038,3.276-.038,3.276s2.554,0,3.666,0h.88c-.206,1.58-.4,3.1-.6,4.63h-3.912v11.567h-4.8v-11.585h-3.926V7126.4h3.949v-.347c0-.927-.02-1.852,0-2.778a12.037,12.037,0,0,1,.143-1.771,5.161,5.161,0,0,1,2.073-3.445,5.986,5.986,0,0,1,3.448-1.066c.814-.019,1.629.022,2.442.058.444.022.887.083,1.311.125Z"/></g></svg>