<svg xmlns="http://www.w3.org/2000/svg" width="38.768" height="38.768" viewBox="0 0 38.768 38.768"><defs><style>.a{fill:#ffa300;fill-rule:evenodd;}</style></defs><g transform="translate(-1760.643 -7110.337)"><path class="a" d="M1792.4,7110.337h-24.741a7.013,7.013,0,0,0-7.013,7.013v24.741a7.014,7.014,0,0,0,7.013,7.014H1792.4a7.014,7.014,0,0,0,7.014-7.014V7117.35A7.014,7.014,0,0,0,1792.4,7110.337Zm-1.165,26.054a5.858,5.858,0,0,1-5.06,4.62c-2.01.326-10.966.386-12.789-.084a5.848,5.848,0,0,1-4.641-5.039c-.321-1.943-.431-11,.12-12.969a5.827,5.827,0,0,1,5-4.486,83.247,83.247,0,0,1,11.427-.128,6.405,6.405,0,0,1,4.236,1.72,6.135,6.135,0,0,1,1.868,3.943C1791.576,7125.788,1791.76,7134.373,1791.232,7136.391Z"/><path class="a" d="M1785.829,7120.484a81.563,81.563,0,0,0-11.372-.046,3.9,3.9,0,0,0-3.661,3.475,77.327,77.327,0,0,0,0,11.659,3.79,3.79,0,0,0,2.874,3.262c1.728.484,10.051.372,11.914.167a3.91,3.91,0,0,0,3.677-3.49,82.84,82.84,0,0,0,.048-11.343A3.913,3.913,0,0,0,1785.829,7120.484Zm-5.807,15.162a5.924,5.924,0,1,1,5.927-5.92A5.922,5.922,0,0,1,1780.022,7135.646Zm6.158-10.688a1.386,1.386,0,1,1,1.391-1.383A1.386,1.386,0,0,1,1786.18,7124.958Z"/><path class="a" d="M1780.057,7125.888a3.831,3.831,0,1,0,3.8,3.865A3.831,3.831,0,0,0,1780.057,7125.888Z"/></g></svg>