<svg xmlns="http://www.w3.org/2000/svg" width="38.768" height="38.768" viewBox="0 0 38.768 38.768"><defs><style>.a{fill:#ffa300;fill-rule:evenodd;}</style></defs><g transform="translate(-1704.104 -7110.575)"><path class="a" d="M1735.858,7110.575h-24.741a7.014,7.014,0,0,0-7.013,7.014v24.741a7.013,7.013,0,0,0,7.013,7.013h24.741a7.013,7.013,0,0,0,7.014-7.013v-24.741A7.014,7.014,0,0,0,1735.858,7110.575Zm-.481,12.448a10.024,10.024,0,0,1-1.865,1.771.176.176,0,0,0-.084.162,14.085,14.085,0,0,1-.1,2.277,15.081,15.081,0,0,1-1.321,4.565,14.756,14.756,0,0,1-2.772,4.042,13.7,13.7,0,0,1-7.047,3.927,15.39,15.39,0,0,1-2.856.34,14.479,14.479,0,0,1-8.206-2.2c-.032-.019-.064-.042-.12-.079a10.36,10.36,0,0,0,5.129-.707,10.178,10.178,0,0,0,2.439-1.421,5.145,5.145,0,0,1-4.772-3.559,5.107,5.107,0,0,0,2.2-.066.542.542,0,0,0,.073-.034,5.116,5.116,0,0,1-3.33-2.353,4.978,4.978,0,0,1-.751-2.726,5.045,5.045,0,0,0,2.282.621,5.153,5.153,0,0,1-2.111-3.11,5.08,5.08,0,0,1,.55-3.715,14.674,14.674,0,0,0,10.576,5.359c-.03-.2-.061-.382-.082-.561a5.127,5.127,0,0,1,8.716-4.242.259.259,0,0,0,.273.082,10.352,10.352,0,0,0,2.983-1.147.506.506,0,0,1,.068-.035s.012,0,.034,0a5.247,5.247,0,0,1-2.2,2.79,9.809,9.809,0,0,0,2.855-.768l.021.023C1735.77,7122.511,1735.58,7122.773,1735.377,7123.023Z"/></g></svg>