<svg xmlns="http://www.w3.org/2000/svg" width="38.768" height="38.768" viewBox="0 0 38.768 38.768"><defs><style>.a{fill:#ffa300;fill-rule:evenodd;}</style></defs><g transform="translate(-1817.182 -7110.27)"><path class="a" d="M1834.886,7120.107a9.6,9.6,0,0,0-6.683,14.1,2,2,0,0,1,.215,1.827c-.286.809-.462,1.654-.711,2.572,1.147-.3,2.2-.562,3.249-.857a.946.946,0,0,1,.786.115,9.419,9.419,0,0,0,6.372,1.2,9.618,9.618,0,1,0-3.228-18.962Zm4.839,15.195c-2.338-.083-6.063-1.929-8.613-6.36a3.6,3.6,0,0,1,.552-4.6,1.664,1.664,0,0,1,1.538-.226c.129.019.264.217.329.364.34.773.675,1.546.971,2.339.156.417-.132.81-.737,1.508a.516.516,0,0,0-.082.68,8.166,8.166,0,0,0,4.156,3.568.5.5,0,0,0,.631-.169c.956-1.167,1.053-1.508,1.556-1.269,2.419,1.157,2.608,1.2,2.619,1.479A2.636,2.636,0,0,1,1839.725,7135.3Z"/><path class="a" d="M1848.937,7110.27H1824.2a7.014,7.014,0,0,0-7.014,7.014v24.741a7.014,7.014,0,0,0,7.014,7.013h24.741a7.013,7.013,0,0,0,7.013-7.013v-24.741A7.014,7.014,0,0,0,1848.937,7110.27Zm-10.244,31.109a12.037,12.037,0,0,1-7.479-1.09,1.176,1.176,0,0,0-.737-.08c-3.171.8-5.28,1.393-5.92,1.518.135-.521.253-.974.374-1.428.4-1.45.8-2.9,1.182-4.351a1.066,1.066,0,0,0-.071-.7,11.985,11.985,0,1,1,12.651,6.131Z"/></g></svg>